<svg width="20" height="20" viewBox="0 0 20 20" fill="none" xmlns="http://www.w3.org/2000/svg">
<rect width="20" height="20" fill="#121212"/>
<path d="M10.5 3C10.5 2.72386 10.2761 2.5 10 2.5C9.72386 2.5 9.5 2.72386 9.5 3L10 3L10.5 3ZM9.64645 17.3536C9.84171 17.5488 10.1583 17.5488 10.3536 17.3536L13.5355 14.1716C13.7308 13.9763 13.7308 13.6597 13.5355 13.4645C13.3403 13.2692 13.0237 13.2692 12.8284 13.4645L10 16.2929L7.17157 13.4645C6.97631 13.2692 6.65973 13.2692 6.46447 13.4645C6.2692 13.6597 6.2692 13.9763 6.46447 14.1716L9.64645 17.3536ZM10 3L9.5 3L9.5 17L10 17L10.5 17L10.5 3L10 3Z" fill="white"/>
</svg>
