<svg width="20" height="20" viewBox="0 0 20 20" fill="none" xmlns="http://www.w3.org/2000/svg">
<path d="M10.5 5C10.5 4.72386 10.2761 4.5 10 4.5C9.72386 4.5 9.5 4.72386 9.5 5H10H10.5ZM9.64645 15.3536C9.84171 15.5488 10.1583 15.5488 10.3536 15.3536L13.5355 12.1716C13.7308 11.9763 13.7308 11.6597 13.5355 11.4645C13.3403 11.2692 13.0237 11.2692 12.8284 11.4645L10 14.2929L7.17157 11.4645C6.97631 11.2692 6.65973 11.2692 6.46447 11.4645C6.2692 11.6597 6.2692 11.9763 6.46447 12.1716L9.64645 15.3536ZM10 5H9.5V15H10H10.5V5H10Z" fill="white"/>
</svg>
