<svg width="20" height="20" viewBox="0 0 20 20" fill="none" xmlns="http://www.w3.org/2000/svg">
<rect width="20" height="20" fill="#121212"/>
<path d="M9.5 15C9.5 15.2761 9.72386 15.5 10 15.5C10.2761 15.5 10.5 15.2761 10.5 15L10 15L9.5 15ZM10.3536 4.64645C10.1583 4.45118 9.84171 4.45118 9.64645 4.64645L6.46447 7.82843C6.2692 8.02369 6.2692 8.34027 6.46447 8.53553C6.65973 8.7308 6.97631 8.7308 7.17157 8.53553L10 5.70711L12.8284 8.53553C13.0237 8.7308 13.3403 8.7308 13.5355 8.53553C13.7308 8.34027 13.7308 8.02369 13.5355 7.82843L10.3536 4.64645ZM10 15L10.5 15L10.5 5L10 5L9.5 5L9.5 15L10 15Z" fill="white"/>
</svg>
