<svg width="20" height="20" viewBox="0 0 20 20" fill="none" xmlns="http://www.w3.org/2000/svg">
<rect width="20" height="20" fill="#121212"/>
<path d="M9.48999 17C9.48999 17.2761 9.71385 17.5 9.98999 17.5C10.2661 17.5 10.49 17.2761 10.49 17L9.98999 17L9.48999 17ZM10.3435 2.64645C10.1483 2.45118 9.8317 2.45118 9.63644 2.64645L6.45446 5.82843C6.25919 6.02369 6.25919 6.34027 6.45446 6.53553C6.64972 6.7308 6.9663 6.7308 7.16156 6.53553L9.98999 3.70711L12.8184 6.53553C13.0137 6.7308 13.3303 6.7308 13.5255 6.53553C13.7208 6.34027 13.7208 6.02369 13.5255 5.82843L10.3435 2.64645ZM9.98999 17L10.49 17L10.49 3L9.98999 3L9.48999 3L9.48999 17L9.98999 17Z" fill="white"/>
</svg>
