<svg width="20" height="20" viewBox="0 0 20 20" fill="none" xmlns="http://www.w3.org/2000/svg">
<path d="M9.48999 15C9.48999 15.2761 9.71385 15.5 9.98999 15.5C10.2661 15.5 10.49 15.2761 10.49 15L9.98999 15L9.48999 15ZM10.3435 4.64645C10.1483 4.45118 9.8317 4.45118 9.63644 4.64645L6.45446 7.82843C6.25919 8.02369 6.25919 8.34027 6.45446 8.53553C6.64972 8.7308 6.9663 8.7308 7.16156 8.53553L9.98999 5.70711L12.8184 8.53553C13.0137 8.7308 13.3303 8.7308 13.5255 8.53553C13.7208 8.34027 13.7208 8.02369 13.5255 7.82843L10.3435 4.64645ZM9.98999 15L10.49 15L10.49 5L9.98999 5L9.48999 5L9.48999 15L9.98999 15Z" fill="white"/>
</svg>
